<?xml version="1.0" encoding="UTF-8" standalone="no"?> <!-- Created with Vectornator for iOS (http://vectornator.io/) --><!DOCTYPE svg PUBLIC "-//W3C//DTD SVG 1.1//EN" "http://www.w3.org/Graphics/SVG/1.1/DTD/svg11.dtd">
<svg style="fill-rule:evenodd;clip-rule:evenodd;stroke-linecap:round;stroke-linejoin:round;" xmlns:vectornator="http://vectornator.io" xmlns:xlink="http://www.w3.org/1999/xlink" xmlns="http://www.w3.org/2000/svg" xml:space="preserve" version="1.1" viewBox="0 0 1024 1024">
<metadata>
<vectornator:setting key="DimensionsVisible" value="1"/>
<vectornator:setting key="SnapToGrid" value="1"/>
<vectornator:setting key="SnapToPoints" value="1"/>
<vectornator:setting key="GuidesVisible" value="1"/>
<vectornator:setting key="RulersVisible" value="1"/>
<vectornator:setting key="CMYKEnabledKey" value="0"/>
<vectornator:setting key="SnapToEdges" value="1"/>
<vectornator:setting key="DisplayWhiteBackground" value="0"/>
<vectornator:setting key="SnapToGuides" value="1"/>
<vectornator:setting key="GridSpacing" value="12"/>
<vectornator:setting key="Units" value="Pixels"/>
<vectornator:setting key="DynamicGuides" value="1"/>
<vectornator:setting key="New" value="1"/>
</metadata>
<defs/>
<g id="Github" vectornator:layerName="Github">
<path d="M511.953+12.635C229.227+12.635-0.00256404+241.865-0.00256404+524.653C-0.00256404+750.865+146.688+942.754+350.144+1010.49C375.76+1015.17+385.096+999.362+385.096+985.784C385.096+973.651+384.655+941.434+384.404+898.719C241.988+929.647+211.94+830.073+211.94+830.073C188.649+770.919+155.08+755.171+155.08+755.171C108.593+723.426+158.601+724.054+158.601+724.054C209.991+727.669+237.022+776.828+237.022+776.828C282.692+855.061+356.87+832.461+386.038+819.355C390.69+786.289+403.892+763.721+418.539+750.928C304.851+738.01+185.317+694.069+185.317+497.874C185.317+441.989+205.276+396.287+238.028+360.487C232.747+347.537+215.177+295.487+243.025+224.986C243.025+224.986+286.024+211.219+383.838+277.476C424.668+266.098+468.483+260.44+512.016+260.252C555.485+260.44+599.301+266.098+640.193+277.476C737.945+211.219+780.849+224.986+780.849+224.986C808.791+295.487+791.221+347.537+785.941+360.487C818.755+396.287+838.588+441.989+838.588+497.874C838.588+694.572+718.866+737.853+604.801+750.52C623.189+766.33+639.565+797.572+639.565+845.348C639.565+913.775+638.936+969+638.936+985.784C638.936+999.488+648.145+1015.42+674.139+1010.43C877.438+942.566+1024+750.803+1024+524.653C1024+241.865+794.742+12.635+511.953+12.635" opacity="1" fill="#ffffff"/>
</g>
</svg>
